<svg width="30" height="26" viewBox="0 0 30 26" fill="none" xmlns="http://www.w3.org/2000/svg">
<path d="M6.13636 26C5.07273 26 4.14545 25.3842 3.69545 24.4947L0.136364 11.5495L0 10.9474C0 10.5844 0.143668 10.2364 0.3994 9.97975C0.655131 9.72312 1.00198 9.57895 1.36364 9.57895H7.60909L13.8818 0.588421C14.1273 0.232632 14.5364 0 15 0C15.4636 0 15.8864 0.232632 16.1318 0.602105L22.3909 9.57895H28.6364C28.998 9.57895 29.3449 9.72312 29.6006 9.97975C29.8563 10.2364 30 10.5844 30 10.9474L29.9455 11.3442L26.3045 24.4947C25.8545 25.3842 24.9273 26 23.8636 26H6.13636ZM15 3.74947L10.9091 9.57895H19.0909L15 3.74947ZM15 15.0526C14.2767 15.0526 13.583 15.341 13.0715 15.8542C12.5601 16.3675 12.2727 17.0636 12.2727 17.7895C12.2727 18.5153 12.5601 19.2115 13.0715 19.7247C13.583 20.238 14.2767 20.5263 15 20.5263C15.7233 20.5263 16.417 20.238 16.9285 19.7247C17.4399 19.2115 17.7273 18.5153 17.7273 17.7895C17.7273 17.0636 17.4399 16.3675 16.9285 15.8542C16.417 15.341 15.7233 15.0526 15 15.0526Z" fill="white"/>
</svg>
