<svg width="25" height="29" viewBox="0 0 25 29" fill="none" xmlns="http://www.w3.org/2000/svg">
<path d="M25 23.4762V24.8571H0V23.4762L2.77778 20.7143V12.4286C2.77778 8.14762 5.59722 4.37762 9.72222 3.16238C9.72222 3.02429 9.72222 2.9 9.72222 2.7619C9.72222 2.0294 10.0149 1.3269 10.5358 0.808943C11.0567 0.290985 11.7633 0 12.5 0C13.2367 0 13.9432 0.290985 14.4642 0.808943C14.9851 1.3269 15.2778 2.0294 15.2778 2.7619C15.2778 2.9 15.2778 3.02429 15.2778 3.16238C19.4028 4.37762 22.2222 8.14762 22.2222 12.4286V20.7143L25 23.4762ZM15.2778 26.2381C15.2778 26.9706 14.9851 27.6731 14.4642 28.1911C13.9432 28.709 13.2367 29 12.5 29C11.7633 29 11.0567 28.709 10.5358 28.1911C10.0149 27.6731 9.72222 26.9706 9.72222 26.2381" fill="white"/>
</svg>
